<svg width="63" height="26" viewBox="0 0 63 26" fill="none" xmlns="http://www.w3.org/2000/svg">
<path d="M17.5028 10.5455C17.5028 12.5644 17.1335 14.3002 16.3949 15.7528C15.6563 17.1993 14.6437 18.3134 13.3572 19.0952C12.0769 19.8707 10.6212 20.2585 8.99006 20.2585C7.35275 20.2585 5.89086 19.8707 4.6044 19.0952C3.3241 18.3134 2.31463 17.1963 1.57599 15.7436C0.837358 14.291 0.46804 12.5582 0.46804 10.5455C0.46804 8.52651 0.837358 6.7938 1.57599 5.3473C2.31463 3.89465 3.3241 2.78054 4.6044 2.00497C5.89086 1.22325 7.35275 0.832386 8.99006 0.832386C10.6212 0.832386 12.0769 1.22325 13.3572 2.00497C14.6437 2.78054 15.6563 3.89465 16.3949 5.3473C17.1335 6.7938 17.5028 8.52651 17.5028 10.5455ZM14.6776 10.5455C14.6776 9.00663 14.4283 7.71094 13.9297 6.65838C13.4373 5.59967 12.7602 4.79948 11.8984 4.25781C11.0429 3.70999 10.0734 3.43608 8.99006 3.43608C7.90057 3.43608 6.92803 3.70999 6.07244 4.25781C5.21686 4.79948 4.53977 5.59967 4.04119 6.65838C3.54877 7.71094 3.30256 9.00663 3.30256 10.5455C3.30256 12.0843 3.54877 13.383 4.04119 14.4418C4.53977 15.4943 5.21686 16.2945 6.07244 16.8423C6.92803 17.384 7.90057 17.6548 8.99006 17.6548C10.0734 17.6548 11.0429 17.384 11.8984 16.8423C12.7602 16.2945 13.4373 15.4943 13.9297 14.4418C14.4283 13.383 14.6776 12.0843 14.6776 10.5455ZM23.5989 11.5795V20H20.8382V5.81818H23.4881V8.12642H23.6635C23.9898 7.37547 24.5007 6.77225 25.1962 6.31676C25.8979 5.86127 26.7812 5.63352 27.8461 5.63352C28.8124 5.63352 29.6588 5.83665 30.3851 6.2429C31.1114 6.64299 31.6747 7.24006 32.0748 8.03409C32.4748 8.82812 32.6749 9.8099 32.6749 10.9794V20H29.9142V11.3118C29.9142 10.2839 29.6465 9.48059 29.111 8.90199C28.5755 8.31723 27.8399 8.02486 26.9043 8.02486C26.2641 8.02486 25.6948 8.16335 25.1962 8.44034C24.7038 8.71733 24.3129 9.12358 24.0236 9.65909C23.7405 10.1884 23.5989 10.8286 23.5989 11.5795ZM37.6145 25.3182C37.2021 25.3182 36.8266 25.2843 36.4881 25.2166C36.1496 25.1551 35.8972 25.0874 35.731 25.0135L36.3958 22.7514C36.9005 22.8868 37.3498 22.9453 37.7438 22.9268C38.1377 22.9084 38.4855 22.7607 38.7871 22.4837C39.0949 22.2067 39.3657 21.7543 39.5996 21.1264L39.9412 20.1847L34.7523 5.81818H37.7069L41.2985 16.8239H41.4462L45.0378 5.81818H48.0016L42.1571 21.8928C41.8863 22.6314 41.5416 23.2562 41.123 23.767C40.7045 24.2841 40.2059 24.6719 39.6273 24.9304C39.0487 25.1889 38.3778 25.3182 37.6145 25.3182ZM52.775 5.81818L55.905 11.3395L59.0627 5.81818H62.0819L57.6593 12.9091L62.1188 20H59.0996L55.905 14.7003L52.7196 20H49.6912L54.1046 12.9091L49.7466 5.81818H52.775Z" fill="#32324E"/>
</svg>
